<svg width="30" height="29" viewBox="0 0 30 29" fill="none" xmlns="http://www.w3.org/2000/svg">
<path d="M25.8547 2.42285H4.24373C3.65164 2.42285 3.20758 2.86691 3.20758 3.459V25.218C3.20758 25.6621 3.65164 26.1062 4.24373 26.1062H26.0028C26.5948 26.1062 27.0389 25.6621 27.0389 25.07V3.459C26.8909 2.86691 26.4468 2.42285 25.8547 2.42285ZM10.1646 22.5537H6.76008V11.3041H10.3126V22.5537H10.1646ZM8.53632 9.82388C7.35216 9.82388 6.46403 8.78774 6.46403 7.7516C6.46403 6.56743 7.35216 5.67931 8.53632 5.67931C9.72049 5.67931 10.6086 6.56743 10.6086 7.7516C10.4606 8.78774 9.57247 9.82388 8.53632 9.82388ZM23.3384 22.5537H19.7859V17.0769C19.7859 15.7447 19.7859 14.1165 18.0096 14.1165C16.2334 14.1165 15.9374 15.5967 15.9374 17.0769V22.7017H12.3849V11.3041H15.7893V12.7843C16.2334 11.8962 17.4176 11.008 19.0458 11.008C22.5983 11.008 23.1904 13.3764 23.1904 16.3368V22.5537H23.3384Z" fill="#7A7D85"/>
</svg>
