<svg width="30" height="29" viewBox="0 0 30 29" fill="none" xmlns="http://www.w3.org/2000/svg">
<path d="M14.8877 2.42285C8.37476 2.42285 3.04602 7.7516 3.04602 14.2645C3.04602 19.2972 6.15445 23.5898 10.5951 25.218C10.4471 24.3299 10.4471 22.8497 10.5951 21.8136C10.7431 20.9254 11.9273 15.8927 11.9273 15.8927C11.9273 15.8927 11.6312 15.3006 11.6312 14.2645C11.6312 12.6363 12.6674 11.3041 13.8515 11.3041C14.8877 11.3041 15.3317 12.0442 15.3317 12.9323C15.3317 13.9685 14.7397 15.4487 14.2956 16.9289C13.9995 18.113 14.8877 19.0012 16.0718 19.0012C18.1441 19.0012 19.7724 16.7809 19.7724 13.5244C19.7724 10.712 17.7001 8.63972 14.8877 8.63972C11.4832 8.63972 9.55893 11.1561 9.55893 13.8204C9.55893 14.8566 10.003 15.8927 10.4471 16.4848C10.4471 16.7809 10.4471 16.9289 10.4471 17.0769C10.299 17.521 10.151 18.2611 10.151 18.4091C10.151 18.5571 10.003 18.7051 9.70695 18.5571C8.22674 17.817 7.33862 15.7447 7.33862 13.9685C7.33862 10.2679 10.003 6.86347 15.1837 6.86347C19.3283 6.86347 22.4367 9.82388 22.4367 13.6724C22.4367 17.817 19.9204 21.0735 16.2199 21.0735C15.0357 21.0735 13.8515 20.4814 13.5555 19.7413C13.5555 19.7413 12.9634 21.9616 12.8154 22.5537C12.5193 23.5898 11.7792 24.922 11.3352 25.6621C12.5193 25.9581 13.7035 26.1062 14.8877 26.1062C21.4006 26.1062 26.7293 20.7774 26.7293 14.2645C26.7293 7.7516 21.4006 2.42285 14.8877 2.42285Z" fill="#7A7D85"/>
</svg>
