<svg width="29" height="29" viewBox="0 0 29 29" fill="none" xmlns="http://www.w3.org/2000/svg">
<path d="M26.2102 7.01157C25.322 7.45563 24.4339 7.60365 23.3978 7.75167C24.4339 7.15959 25.174 6.27147 25.4701 5.0873C24.5819 5.67938 23.5458 5.97543 22.3616 6.27147C21.4735 5.38334 20.1413 4.79126 18.8091 4.79126C16.2928 4.79126 14.0725 7.01157 14.0725 9.67594C14.0725 10.12 14.0725 10.416 14.2205 10.7121C10.2239 10.5641 6.52341 8.6398 4.15508 5.67938C3.71102 6.41949 3.563 7.15959 3.563 8.19573C3.563 9.82396 4.45112 11.3042 5.78331 12.1923C5.04321 12.1923 4.3031 11.8963 3.563 11.6002C3.563 13.9685 5.19123 15.8928 7.41154 16.3369C6.96748 16.4849 6.52341 16.4849 6.07935 16.4849C5.78331 16.4849 5.48727 16.4849 5.19123 16.3369C5.78331 18.2611 7.55956 19.7413 9.77987 19.7413C8.15164 21.0735 6.07935 21.8136 3.71102 21.8136C3.26696 21.8136 2.97092 21.8136 2.52686 21.8136C4.74717 23.1458 7.26352 24.0339 9.92789 24.0339C18.8091 24.0339 23.6938 16.6329 23.6938 10.268C23.6938 10.12 23.6938 9.82396 23.6938 9.67594C24.73 8.93584 25.6181 8.04771 26.2102 7.01157Z" fill="#7A7D85"/>
</svg>
