<svg width="29" height="29" viewBox="0 0 29 29" fill="none" xmlns="http://www.w3.org/2000/svg">
<path d="M26.0504 14.2671C26.0508 12.0039 25.4029 9.78812 24.1831 7.88189C22.9633 5.97566 21.2228 4.45888 19.1676 3.51117C17.1125 2.56346 14.8289 2.2245 12.587 2.53442C10.3453 2.84435 8.23922 3.79018 6.51833 5.25993C4.79741 6.72967 3.53372 8.66178 2.87684 10.8275C2.21997 12.9932 2.19745 15.3017 2.81194 17.4797C3.42642 19.6579 4.65219 21.6143 6.34408 23.1173C8.03597 24.6204 10.1231 25.6071 12.3585 25.9607V17.6893H9.35216V14.2671H12.3585V11.6575C12.2937 11.0483 12.3638 10.4323 12.5637 9.85325C12.7636 9.27416 13.0884 8.74613 13.515 8.30657C13.9417 7.867 14.4599 7.52669 15.0328 7.30971C15.6057 7.09275 16.2193 7.00445 16.8301 7.05108C17.7183 7.06274 18.6045 7.13993 19.4812 7.28199V10.1995H17.9892C17.735 10.1662 17.4767 10.1906 17.2331 10.2707C16.9896 10.3508 16.7673 10.4847 16.5825 10.6623C16.3978 10.84 16.2553 11.0569 16.1657 11.2971C16.0761 11.5372 16.0417 11.7945 16.0649 12.0498V14.2701H19.3494L18.824 17.6923H16.059V25.9681C18.8451 25.5273 21.3824 24.1066 23.2141 21.9615C25.0457 19.8163 26.0516 17.0878 26.0504 14.2671Z" fill="#7A7D85"/>
</svg>
