<svg width="29" height="29" viewBox="0 0 29 29" fill="none" xmlns="http://www.w3.org/2000/svg">
<path d="M20.8633 9.60518C21.6481 9.60518 22.2843 8.96898 22.2843 8.18418C22.2843 7.39939 21.6481 6.76318 20.8633 6.76318C20.0785 6.76318 19.4423 7.39939 19.4423 8.18418C19.4423 8.96898 20.0785 9.60518 20.8633 9.60518Z" fill="#7A7D85"/>
<path d="M14.728 20.1854C11.4626 20.1854 8.80713 17.5299 8.80713 14.2646C8.80713 10.9992 11.4626 8.34375 14.728 8.34375C17.9933 8.34375 20.6488 10.9992 20.6488 14.2646C20.6488 17.5299 17.9933 20.1854 14.728 20.1854ZM14.728 11.3042C13.0953 11.3042 11.7675 12.632 11.7675 14.2646C11.7675 15.8972 13.0953 17.225 14.728 17.225C16.3606 17.225 17.6884 15.8972 17.6884 14.2646C17.6884 12.632 16.3606 11.3042 14.728 11.3042Z" fill="#7A7D85"/>
<path d="M20.6488 26.1062H8.80712C5.76381 26.1062 2.88629 23.2286 2.88629 20.1853V8.34368C2.88629 5.30037 5.76381 2.42285 8.80712 2.42285H20.6488C23.6921 2.42285 26.5696 5.30037 26.5696 8.34368V20.1853C26.5696 23.2286 23.6921 26.1062 20.6488 26.1062ZM8.80712 5.38326C7.42312 5.38326 5.8467 6.95968 5.8467 8.34368V20.1853C5.8467 21.5959 7.39648 23.1457 8.80712 23.1457H20.6488C22.0328 23.1457 23.6092 21.5694 23.6092 20.1853V8.34368C23.6092 6.95968 22.0328 5.38326 20.6488 5.38326H8.80712Z" fill="#7A7D85"/>
</svg>
