<svg width="86" height="87" viewBox="0 0 86 87" fill="none" xmlns="http://www.w3.org/2000/svg">
<rect x="0.000427246" y="0.199951" width="86" height="86" rx="43" fill="#2E90EB"/>
<path d="M42.7496 49.9039L49.0004 56.2ZM46.1115 41.7555C46.1115 48.1375 40.938 53.3111 34.556 53.3111C28.174 53.3111 23.0004 48.1375 23.0004 41.7555C23.0004 35.3735 28.174 30.2 34.556 30.2C40.938 30.2 46.1115 35.3735 46.1115 41.7555Z" fill="#2E90EB"/>
<path d="M42.7496 49.9039L49.0004 56.2M46.1115 41.7555C46.1115 48.1375 40.938 53.3111 34.556 53.3111C28.174 53.3111 23.0004 48.1375 23.0004 41.7555C23.0004 35.3735 28.174 30.2 34.556 30.2C40.938 30.2 46.1115 35.3735 46.1115 41.7555Z" stroke="white" stroke-width="2.88889" stroke-linecap="round" stroke-linejoin="round"/>
</svg>
