<svg width="36" height="36" viewBox="0 0 36 36" fill="none" xmlns="http://www.w3.org/2000/svg">
<path d="M29.8454 1.05596C30.5214 0.37984 31.4386 0 32.3946 0C33.3508 0 34.268 0.37984 34.944 1.05596C35.6202 1.7321 36 2.64912 36 3.6053C36 4.5615 35.6202 5.47852 34.944 6.15464L18.7982 22.3004L12 24L13.6996 17.2018L29.8454 1.05596Z" stroke="white" stroke-width="4" stroke-linecap="round" stroke-linejoin="round"/>
<path d="M26.001 6L30.001 10" stroke="white" stroke-width="4" stroke-linecap="round" stroke-linejoin="round"/>
<path d="M19 0H18C8.05888 0 0 8.05888 0 18C0 27.9412 8.05888 36 18 36C27.9412 36 36 27.9412 36 18V17" stroke="white" stroke-width="4" stroke-linecap="round"/>
</svg>
