<svg width="34" height="26" viewBox="0 0 34 26" fill="none" xmlns="http://www.w3.org/2000/svg">
<path fill-rule="evenodd" clip-rule="evenodd" d="M33.0903 3.53478C33.0903 1.58244 31.5079 0 29.5556 0H3.53476C1.58243 0 0 1.58244 0 3.53478C0 7.40046 0 15.0538 0 18.9195C0 20.8719 1.58243 22.4543 3.53476 22.4543H11.4244L15.8361 25.7633C16.2568 26.0789 16.8335 26.0789 17.2542 25.7633L21.6659 22.4543H29.5556C31.5079 22.4543 33.0903 20.8719 33.0903 18.9195V3.53478ZM8.9273 14.7726H12.3451L13.06 16.9187C13.2669 17.538 13.9369 17.8724 14.555 17.6668C15.1743 17.46 15.5087 16.7899 15.3031 16.1718L11.7577 5.53557C11.597 5.05222 11.1444 4.72722 10.6362 4.72722C10.128 4.72722 9.67538 5.05222 9.51465 5.53557L5.96926 16.1718C5.76363 16.7899 6.09808 17.46 6.71734 17.6668C7.33542 17.8724 8.0055 17.538 8.21231 16.9187L8.9273 14.7726ZM21.2724 6.49993H18.9088C18.2564 6.49993 17.727 7.02937 17.727 7.68173C17.727 8.33409 18.2564 8.86354 18.9088 8.86354H21.2393C21.2227 9.40008 21.2168 10.0619 21.27 10.7792C21.244 11.0499 21.2074 11.3276 21.1565 11.6077C20.8895 13.0932 20.2206 14.6863 18.4372 15.4616C17.8392 15.7215 17.5651 16.4188 17.8251 17.0168C18.085 17.6148 18.7823 17.889 19.3803 17.629C20.8233 17.0014 21.8006 16.0312 22.4542 14.9215C23.1077 16.0312 24.085 17.0014 25.528 17.629C26.126 17.889 26.8233 17.6148 27.0833 17.0168C27.3433 16.4188 27.0691 15.7215 26.4711 15.4616C24.6878 14.6863 24.0189 13.0932 23.7518 11.6077C23.701 11.3276 23.6643 11.0499 23.6383 10.7792C23.6915 10.0619 23.6856 9.40008 23.669 8.86354H25.9995C26.6519 8.86354 27.1813 8.33409 27.1813 7.68173C27.1813 7.02937 26.6519 6.49993 25.9995 6.49993H23.636V5.90902C23.636 5.25667 23.1065 4.72722 22.4542 4.72722C21.8018 4.72722 21.2724 5.25667 21.2724 5.90902V6.49993ZM9.71556 12.409H11.5568L10.6362 9.64589L9.71556 12.409Z" fill="white"/>
</svg>
