<svg width="1777" height="522" viewBox="0 0 1777 522" fill="none" xmlns="http://www.w3.org/2000/svg">
<mask id="mask0_0_324" style="mask-type:luminance" maskUnits="userSpaceOnUse" x="0" y="0" width="1777" height="522">
<path d="M1776.8 0.739456H0.799988V521.738H1776.8V0.739456Z" fill="white"/>
</mask>
<g mask="url(#mask0_0_324)">
<g opacity="0.5">
<path opacity="0.2" d="M291.713 218.657C355.06 218.657 406.413 163.034 406.413 94.4189C406.413 25.8041 355.06 -29.8191 291.713 -29.8191C228.365 -29.8191 177.013 25.8041 177.013 94.4189C177.013 163.034 228.365 218.657 291.713 218.657Z" stroke="white" stroke-width="83.0921"/>
<path opacity="0.15" d="M523.925 348.866C523.925 313.594 497.527 285 464.962 285C432.398 285 406 313.594 406 348.866C406 384.138 432.398 412.731 464.962 412.731C497.527 412.731 523.925 384.138 523.925 348.866Z" fill="white"/>
<path opacity="0.28" d="M523.925 348.866C523.925 337.055 520.901 325.477 515.191 315.417C509.48 305.355 501.306 297.207 491.577 291.876C481.847 286.546 470.944 284.241 460.078 285.22C449.212 286.198 438.81 290.42 430.026 297.419C421.243 304.416 414.423 313.915 410.324 324.859C406.226 335.802 405.009 347.763 406.809 359.411C408.61 371.059 413.357 381.938 420.522 390.84C427.688 399.741 436.993 406.315 447.401 409.833L464.962 348.866H523.925Z" fill="white"/>
<g opacity="0.3">
<path d="M1551.31 339.388H1517.57C1515.26 339.388 1513.4 341.41 1513.4 343.903V528.849C1513.4 531.342 1515.26 533.364 1517.57 533.364H1551.31C1553.62 533.364 1555.48 531.342 1555.48 528.849V343.903C1555.48 341.41 1553.62 339.388 1551.31 339.388Z" fill="white"/>
<path d="M1497.59 378.183H1463.84C1461.54 378.183 1459.67 380.205 1459.67 382.698V528.849C1459.67 531.342 1461.54 533.364 1463.84 533.364H1497.59C1499.89 533.364 1501.76 531.342 1501.76 528.849V382.698C1501.76 380.205 1499.89 378.183 1497.59 378.183Z" fill="white"/>
<path d="M1443.87 455.773H1410.12C1407.82 455.773 1405.95 457.795 1405.95 460.288V528.848C1405.95 531.342 1407.82 533.363 1410.12 533.363H1443.87C1446.17 533.363 1448.03 531.342 1448.03 528.848V460.288C1448.03 457.795 1446.17 455.773 1443.87 455.773Z" fill="white"/>
<path d="M1390.14 436.376H1356.39C1354.09 436.376 1352.23 438.397 1352.23 440.891V528.849C1352.23 531.342 1354.09 533.364 1356.39 533.364H1390.14C1392.44 533.364 1394.31 531.342 1394.31 528.849V440.891C1394.31 438.397 1392.44 436.376 1390.14 436.376Z" fill="white"/>
</g>
</g>
</g>
</svg>
