<svg width="188" height="60" viewBox="0 0 188 60" fill="none" xmlns="http://www.w3.org/2000/svg">
<g filter="url(#filter0_b_2_29)">
<path d="M0 30C0 24.4241 0 21.6362 0.461153 19.3178C2.35491 9.79726 9.79726 2.35491 19.3178 0.461153C21.6362 0 24.4241 0 30 0H158C163.576 0 166.364 0 168.682 0.461153C178.203 2.35491 185.645 9.79726 187.539 19.3178C188 21.6362 188 24.4241 188 30V30C188 35.5759 188 38.3638 187.539 40.6822C185.645 50.2027 178.203 57.6451 168.682 59.5388C166.364 60 163.576 60 158 60H30C24.4241 60 21.6362 60 19.3178 59.5388C9.79726 57.6451 2.35491 50.2027 0.461153 40.6822C0 38.3638 0 35.5759 0 30V30Z" fill="white" fill-opacity="0.41"/>
</g>
<defs>
<filter id="filter0_b_2_29" x="-16" y="-16" width="220" height="92" filterUnits="userSpaceOnUse" color-interpolation-filters="sRGB">
<feFlood flood-opacity="0" result="BackgroundImageFix"/>
<feGaussianBlur in="BackgroundImageFix" stdDeviation="8"/>
<feComposite in2="SourceAlpha" operator="in" result="effect1_backgroundBlur_2_29"/>
<feBlend mode="normal" in="SourceGraphic" in2="effect1_backgroundBlur_2_29" result="shape"/>
</filter>
</defs>
</svg>
