<svg width="54" height="36" viewBox="0 0 54 36" fill="none" xmlns="http://www.w3.org/2000/svg">
<path d="M19.5 9V27M10.5 18H28.5M39 12L46.7304 7.36176C49.1097 5.93409 50.2995 5.22027 51.2784 5.31153C52.1319 5.39109 52.9107 5.832 53.418 6.52299C54 7.31544 54 8.70285 54 11.4777V24.5223C54 27.297 54 28.6845 53.418 29.4771C52.9107 30.168 52.1319 30.609 51.2784 30.6885C50.2995 30.7797 49.1097 30.066 46.7304 28.6383L39 24M9.6 36H29.4C32.7603 36 34.4406 36 35.724 35.346C36.8529 34.7709 37.7709 33.8529 38.346 32.724C39 31.4406 39 29.7603 39 26.4V9.6C39 6.2397 39 4.55952 38.346 3.27606C37.7709 2.14707 36.8529 1.22919 35.724 0.65397C34.4406 -2.23517e-07 32.7603 0 29.4 0H9.6C6.2397 0 4.55952 -2.23517e-07 3.27606 0.65397C2.14707 1.22919 1.22919 2.14707 0.65397 3.27606C-2.23517e-07 4.55952 0 6.23967 0 9.6V26.4C0 29.7603 -2.23517e-07 31.4406 0.65397 32.724C1.22919 33.8529 2.14707 34.7709 3.27606 35.346C4.55952 36 6.23967 36 9.6 36Z" stroke="white" stroke-width="4" stroke-linecap="round" stroke-linejoin="round"/>
</svg>
