<svg width="38" height="37" viewBox="0 0 38 37" fill="none" xmlns="http://www.w3.org/2000/svg">
<path d="M37.1151 35.6705L37.1247 35.6608L37.1334 35.6504C37.5698 35.1267 37.7811 34.4392 37.7811 33.7818C37.7811 33.1262 37.5703 32.4639 37.1151 32.0087L31.565 26.4587C30.6163 25.51 29.1889 25.4091 28.2656 26.2427L26.5207 24.4978C28.7682 21.8554 30.1111 18.4772 30.1111 14.8C30.1111 6.46552 23.3496 -0.3 15.165 -0.3C6.98256 -0.3 0.218951 6.46348 0.218951 14.6458C0.218951 22.8282 6.98256 29.5917 15.165 29.5917C18.8315 29.5917 22.3549 28.256 24.8686 26.0068L26.6401 27.7783C25.9525 28.7964 25.9886 30.2102 26.824 31.0455L32.3741 36.5955C32.9127 37.1341 33.6191 37.3 34.2821 37.3C34.945 37.3 35.6514 37.1341 36.19 36.5955L37.1151 35.6705ZM7.74295 20.4102L7.45657 20.6966L5.20199 18.442L5.11413 18.3542H4.98986C4.99049 18.3542 4.99031 18.3541 4.98924 18.354C4.98503 18.3534 4.96693 18.351 4.92908 18.3406C4.88565 18.3288 4.83613 18.3124 4.77639 18.2925L4.7725 18.2912C4.71745 18.2728 4.65296 18.2513 4.59184 18.2347C4.5333 18.2187 4.45335 18.2 4.37319 18.2H2.88786C2.49608 17.0743 2.36065 15.9357 2.36065 14.6458C2.36065 9.75132 5.287 5.43222 9.41802 3.28764L12.3253 5.77951L11.2149 8.00013C11.0997 8.13754 11.0548 8.30616 11.0342 8.42985C11.0108 8.57016 11.0108 8.70629 11.0108 8.78265V8.7875C11.0108 8.92644 11.079 9.03132 11.1286 9.0923C11.1806 9.15634 11.2442 9.21093 11.2968 9.25301C11.3326 9.28159 11.3739 9.31263 11.4102 9.33984C11.4262 9.35182 11.4411 9.36305 11.4542 9.37301C11.5035 9.41053 11.5379 9.43882 11.5612 9.46213L11.6126 9.51356L11.6819 9.53573L15.2426 10.6751L14.3778 13.146L12.5607 12.2374C12.4233 12.1222 12.2547 12.0773 12.131 12.0567C11.9907 12.0333 11.8545 12.0333 11.7782 12.0333H11.7733C11.6344 12.0333 11.5295 12.1015 11.4685 12.1511C11.4045 12.2031 11.3499 12.2668 11.3078 12.3194C11.2792 12.3551 11.2482 12.3965 11.221 12.4327C11.209 12.4487 11.1978 12.4636 11.1878 12.4767C11.1503 12.526 11.122 12.5604 11.0987 12.5837L11.0486 12.6338L11.0262 12.701L9.70706 16.6583H8.22742C7.79451 16.6583 7.56369 16.8893 7.40653 17.0466L7.39861 17.0545C7.25502 17.1981 7.20267 17.3892 7.17993 17.5257C7.15654 17.666 7.15656 17.8021 7.15657 17.8785L7.15657 17.8833V17.9182L7.16455 17.952L7.74295 20.4102ZM10.0576 20.5759L9.55016 18.8H10.54C10.9453 18.8 11.3671 18.5957 11.5791 18.1717L11.5895 18.151L11.5965 18.1289L12.7261 14.5993L14.6897 15.5156C14.8264 15.6285 14.9931 15.6729 15.1157 15.6933C15.256 15.7167 15.3922 15.7167 15.4685 15.7167H15.4734H15.5976L15.6855 15.6288L15.9168 15.3976L16.148 15.1663L16.1981 15.1162L16.2205 15.049L17.7622 10.424C17.8684 10.1054 17.8166 9.81985 17.6742 9.59204C17.5392 9.37601 17.334 9.22824 17.1492 9.13584L17.1334 9.12791L17.1167 9.1219L13.5717 7.84572L14.4913 5.87508C14.6797 5.66618 14.7487 5.42258 14.6852 5.1689C14.6261 4.93247 14.4611 4.7301 14.298 4.56703L14.2894 4.55845L14.2802 4.55058L11.6572 2.32109C12.8447 2.06262 14.0071 1.84167 15.165 1.84167C21.2618 1.84167 26.3327 6.09915 27.6199 11.8643L24.025 13.7336C23.7952 13.759 23.6208 13.8898 23.5104 14.0555C23.3931 14.2313 23.3444 14.4472 23.3444 14.6458V15.7549L22.4409 16.6583H19.7901C19.5915 16.6583 19.3756 16.7071 19.1998 16.8243C19.0335 16.9352 18.9022 17.1105 18.8776 17.3417L17.3634 20.37C17.269 20.5588 17.2089 20.7734 17.2377 21.0039C17.2669 21.2376 17.3829 21.4505 17.5738 21.6413L19.1155 23.183C19.3589 23.4263 19.6323 23.4257 19.9029 23.4251C19.9167 23.425 19.9305 23.425 19.9443 23.425H20.6531L21.4295 25.7541C19.5164 26.7556 17.4761 27.45 15.165 27.45C10.2134 27.45 5.82081 24.4894 3.76708 20.3417H3.94059L6.72479 23.1258C6.75837 23.2055 6.81525 23.266 6.87389 23.3066C6.95461 23.3625 7.0447 23.3871 7.10867 23.3999C7.2347 23.4251 7.37521 23.425 7.44873 23.425L7.45657 23.425H7.46143C7.5378 23.425 7.67393 23.425 7.81423 23.4016C7.95067 23.3789 8.14179 23.3266 8.28538 23.183L9.82708 21.6413L9.8615 21.6069L9.88327 21.5633C10.0692 21.1914 10.0691 20.8246 10.0691 20.6645V20.6583V20.6163L10.0576 20.5759ZM27.9694 14.0521V14.0525V14.0545V14.0566V14.0586V14.0607V14.0627V14.0648V14.0668V14.0689V14.0709V14.073V14.075V14.0771V14.0791V14.0812V14.0833V14.0853V14.0874V14.0894V14.0915V14.0936V14.0957V14.0977V14.0998V14.1019V14.104V14.1061V14.1081V14.1102V14.1123V14.1144V14.1165V14.1186V14.1207V14.1228V14.1249V14.127V14.1291V14.1312V14.1333V14.1354V14.1376V14.1397V14.1418V14.1439V14.146V14.1482V14.1503V14.1524V14.1545V14.1567V14.1588V14.1609V14.1631V14.1652V14.1674V14.1695V14.1717V14.1738V14.176V14.1781V14.1803V14.1824V14.1846V14.1868V14.1889V14.1911V14.1933V14.1954V14.1976V14.1998V14.202V14.2041V14.2063V14.2085V14.2107V14.2129V14.2151V14.2173V14.2195V14.2217V14.2239V14.2261V14.2283V14.2305V14.2327V14.2349V14.2371V14.2393V14.2416V14.2438V14.246V14.2482V14.2505V14.2527V14.2549V14.2572V14.2594V14.2617V14.2639V14.2661V14.2684V14.2706V14.2729V14.2752V14.2774V14.2797V14.2819V14.2842V14.2865V14.2888V14.291V14.2933V14.2956V14.2979V14.3002V14.3024V14.3047V14.307V14.3093V14.3116V14.3139V14.3162V14.3185V14.3208V14.3231V14.3255V14.3278V14.3301V14.3324V14.3347V14.3371V14.3394V14.3417V14.3441V14.3464V14.3487V14.3511V14.3534V14.3558V14.3581V14.3605V14.3628V14.3652V14.3676V14.3699V14.3723V14.3747V14.377V14.3794V14.3818V14.3842V14.3866V14.3889V14.3913V14.3937V14.3961V14.3985V14.4009V14.4033V14.4057V14.4081V14.4106V14.413V14.4154V14.4178V14.4202V14.4227V14.4251V14.4275V14.43V14.4324V14.4348V14.4373V14.4397V14.4422V14.4446V14.4471V14.4496V14.452V14.4545V14.457V14.4594V14.4619V14.4644V14.4669V14.4694V14.4718V14.4743V14.4768V14.4793V14.4818V14.4843V14.4868V14.4893V14.4919V14.4944V14.4969V14.4994V14.5019V14.5045V14.507V14.5095V14.5121V14.5146V14.5171V14.5197V14.5222V14.5248V14.5274V14.5299V14.5325V14.535V14.5376V14.5402V14.5428V14.5453V14.5479V14.5505V14.5531V14.5557V14.5583V14.5609V14.5635V14.5661V14.5687V14.5713V14.5739V14.5765V14.5792V14.5818V14.5844V14.5871V14.5897V14.5923V14.595V14.5976V14.6003V14.6029V14.6056V14.6082V14.6109V14.6136V14.6162V14.6189V14.6216V14.6243V14.6269V14.6296V14.6323V14.635V14.6377V14.6404V14.6431V14.6458C27.9694 18.7092 26.1539 22.2121 23.1884 24.621L22.39 21.9596L22.3826 21.9348L22.371 21.9117C22.159 21.4876 21.7372 21.2833 21.3318 21.2833H20.2227L19.5385 20.5991L20.438 18.8H22.8735C22.9537 18.8 23.0336 18.7813 23.0922 18.7653C23.1533 18.7487 23.2178 18.7272 23.2728 18.7088L23.2767 18.7075C23.3365 18.6876 23.386 18.6712 23.4294 18.6594C23.4673 18.649 23.4854 18.6466 23.4896 18.646C23.4906 18.6459 23.4908 18.6458 23.4902 18.6458H23.6145L23.7023 18.558L25.244 17.0163C25.4874 16.7729 25.4868 16.4995 25.4861 16.2289C25.4861 16.2151 25.4861 16.2013 25.4861 16.1875V15.2937L27.9694 14.0521ZM35.5737 34.205L34.6866 35.092C34.4954 35.2832 34.2229 35.2832 34.0317 35.092L28.4816 29.542C28.2904 29.3509 28.2904 29.0783 28.4816 28.8871L29.4066 27.9621C29.4405 27.9282 29.4637 27.9173 29.5038 27.9093C29.5645 27.8971 29.6461 27.8958 29.8111 27.8958C29.9761 27.8958 30.0577 27.8971 30.1185 27.9093C30.1586 27.9173 30.1818 27.9282 30.2157 27.9621L35.6776 33.4239C35.6767 33.5471 35.6732 33.6792 35.6601 33.8097C35.6444 33.9672 35.6163 34.1025 35.5737 34.205Z" fill="white" stroke="white" stroke-width="0.6"/>
</svg>
