<svg width="194" height="218" viewBox="0 0 194 218" fill="none" xmlns="http://www.w3.org/2000/svg">
<path d="M20.4432 173.475C20.6411 174.561 21.6825 175.282 22.7692 175.084C23.8559 174.886 24.5764 173.845 24.3785 172.758L20.4432 173.475ZM192.59 60.5406L183.482 39.3187L169.657 57.8178L192.59 60.5406ZM24.3785 172.758C15.4237 123.585 41.2634 88.0549 75.7691 67.3551C93.0331 56.9985 112.408 50.4045 130.524 47.741C148.675 45.0722 165.371 46.3754 177.37 51.5968L178.966 47.9291C166.045 42.3065 148.525 41.0512 129.942 43.7835C111.322 46.5211 91.4432 53.2877 73.7114 63.9249C38.2254 85.2128 11.1064 122.203 20.4432 173.475L24.3785 172.758Z" fill="#0E7777"/>
</svg>
