<svg width="24" height="24" viewBox="0 0 24 24" fill="none" xmlns="http://www.w3.org/2000/svg">
<g filter="url(#filter0_d_0_133)">
<path d="M17.3233 0.188477H7.67675C3.48661 0.188477 0.988647 2.68647 0.988647 6.87666V16.5118C0.988647 20.7135 3.48661 23.2115 7.67675 23.2115H17.3118C21.5019 23.2115 23.9999 20.7135 23.9999 16.5233V6.87666C24.0114 2.68647 21.5134 0.188477 17.3233 0.188477ZM18.1176 11.1589C18.1176 11.6079 17.7607 11.9647 17.3118 11.9647C16.8628 11.9647 16.506 11.6079 16.506 11.1589V10.9517L13.3749 14.0829C13.2022 14.2555 12.972 14.3361 12.7302 14.3131C12.4885 14.2901 12.2698 14.1634 12.1432 13.9562L10.969 12.2065L8.2293 14.9462C8.06814 15.1074 7.87245 15.1764 7.66524 15.1764C7.45804 15.1764 7.25083 15.0959 7.10118 14.9462C6.79038 14.6354 6.79038 14.1289 7.10118 13.8066L10.5316 10.3762C10.7042 10.2035 10.9345 10.1229 11.1762 10.1459C11.4179 10.1689 11.6367 10.2956 11.7633 10.5028L12.9374 12.2525L15.3663 9.8236H15.1591C14.7102 9.8236 14.3533 9.46675 14.3533 9.0178C14.3533 8.56885 14.7102 8.21199 15.1591 8.21199H17.3003C17.4039 8.21199 17.5075 8.23502 17.6111 8.26955C17.8068 8.35013 17.9679 8.51129 18.0485 8.70699C18.0945 8.81059 18.1061 8.91419 18.1061 9.0178V11.1589H18.1176Z" fill="white"/>
</g>
<defs>
<filter id="filter0_d_0_133" x="-1.04278" y="-1.84295" width="27.0741" height="27.0858" filterUnits="userSpaceOnUse" color-interpolation-filters="sRGB">
<feFlood flood-opacity="0" result="BackgroundImageFix"/>
<feColorMatrix in="SourceAlpha" type="matrix" values="0 0 0 0 0 0 0 0 0 0 0 0 0 0 0 0 0 0 127 0" result="hardAlpha"/>
<feOffset/>
<feGaussianBlur stdDeviation="1.01571"/>
<feComposite in2="hardAlpha" operator="out"/>
<feColorMatrix type="matrix" values="0 0 0 0 1 0 0 0 0 1 0 0 0 0 1 0 0 0 0.25 0"/>
<feBlend mode="normal" in2="BackgroundImageFix" result="effect1_dropShadow_0_133"/>
<feBlend mode="normal" in="SourceGraphic" in2="effect1_dropShadow_0_133" result="shape"/>
</filter>
</defs>
</svg>
